<svg width="512" height="512" viewBox="0 0 512 512" xmlns="http://www.w3.org/2000/svg">
<defs>
 <linearGradient id="g" x1="64" y1="64" x2="448" y2="448"><stop stop-color="#1E3A8A"/><stop offset="1" stop-color="#0B1020"/></linearGradient>
 <linearGradient id="h" x1="156" y1="120" x2="356" y2="360"><stop stop-color="#6EE7FF"/><stop offset="1" stop-color="#1E3A8A"/></linearGradient>
</defs>
<rect x="24" y="24" width="464" height="464" rx="110" fill="url(#g)"/>
<circle cx="256" cy="256" r="150" fill="#6EE7FF" opacity="0.16"/>
<path d="M256 120c-63 0-108 48-108 110v54c0 66 49 116 108 116s108-50 108-116v-54c0-62-45-110-108-110z" fill="url(#h)"/>
<circle cx="218" cy="244" r="16" fill="#0B1020"/><circle cx="294" cy="244" r="16" fill="#0B1020"/>
<path d="M214 302c12 14 72 14 84 0" stroke="#0B1020" stroke-width="8" stroke-linecap="round"/>
<text x="256" y="430" text-anchor="middle" fill="#6EE7FF" font-family="Inter,system-ui" font-size="36" font-weight="700">司礼监</text>
<text x="256" y="462" text-anchor="middle" fill="#C7D2FE" font-family="Inter,system-ui" font-size="20">总调度</text>
</svg>