<svg width="512" height="512" viewBox="0 0 512 512" xmlns="http://www.w3.org/2000/svg" fill="none">
  <defs>
    <linearGradient id="bg" x1="64" y1="48" x2="448" y2="464" gradientUnits="userSpaceOnUse">
      <stop stop-color="#0A0F1F"/>
      <stop offset="1" stop-color="#182B56"/>
    </linearGradient>
    <linearGradient id="metal" x1="192" y1="116" x2="320" y2="370" gradientUnits="userSpaceOnUse">
      <stop stop-color="#E9F1FF"/>
      <stop offset="1" stop-color="#AEBFDB"/>
    </linearGradient>
    <linearGradient id="red" x1="156" y1="162" x2="352" y2="336" gradientUnits="userSpaceOnUse">
      <stop stop-color="#FF5A5A"/>
      <stop offset="1" stop-color="#D8263A"/>
    </linearGradient>
    <linearGradient id="cyan" x1="220" y1="248" x2="292" y2="304" gradientUnits="userSpaceOnUse">
      <stop stop-color="#8CF2FF"/>
      <stop offset="1" stop-color="#31CFFF"/>
    </linearGradient>
  </defs>

  <rect x="32" y="32" width="448" height="448" rx="118" fill="url(#bg)"/>

  <!-- Glow ring -->
  <circle cx="256" cy="256" r="166" stroke="#6FD8FF" stroke-opacity="0.22" stroke-width="18"/>

  <!-- Helmet silhouette -->
  <path d="M256 106C189 106 152 157 152 226V274C152 344 196 406 256 406C316 406 360 344 360 274V226C360 157 323 106 256 106Z" fill="url(#metal)"/>

  <!-- Red facial/armor lines -->
  <path d="M190 188C206 164 229 150 256 150C283 150 306 164 322 188L294 208C284 194 271 186 256 186C241 186 228 194 218 208L190 188Z" fill="url(#red)"/>
  <path d="M210 318C226 334 241 342 256 342C271 342 286 334 302 318L328 334C306 360 282 374 256 374C230 374 206 360 184 334L210 318Z" fill="url(#red)"/>
  <path d="M168 258L206 236V290L168 308V258Z" fill="url(#red)"/>
  <path d="M344 258L306 236V290L344 308V258Z" fill="url(#red)"/>

  <!-- Eye frames -->
  <path d="M186 236C198 216 218 206 236 210C227 232 227 253 236 274C214 278 196 268 186 236Z" fill="#D9F9FF"/>
  <path d="M326 236C314 216 294 206 276 210C285 232 285 253 276 274C298 278 316 268 326 236Z" fill="#D9F9FF"/>
  <path d="M194 240C204 226 217 221 228 223C222 238 222 249 228 263C214 266 201 260 194 240Z" fill="#91F0FF"/>
  <path d="M318 240C308 226 295 221 284 223C290 238 290 249 284 263C298 266 311 260 318 240Z" fill="#91F0FF"/>

  <!-- Center crystal -->
  <path d="M256 246L276 272L256 298L236 272L256 246Z" fill="url(#cyan)" stroke="#C8FBFF" stroke-width="4"/>

  <!-- Mouth line -->
  <path d="M226 318H286" stroke="#5D6F8F" stroke-width="7" stroke-linecap="round"/>

  <!-- Lobster subtle hint: tiny antenna crest -->
  <path d="M238 128L226 108" stroke="#FF8B8B" stroke-width="5" stroke-linecap="round"/>
  <path d="M274 128L286 108" stroke="#FF8B8B" stroke-width="5" stroke-linecap="round"/>

  <text x="256" y="438" text-anchor="middle" fill="#A9DFFF" font-family="Inter, system-ui, sans-serif" font-size="24" font-weight="700">龙虾弟 · 光之形态</text>
</svg>
