<svg width="512" height="512" viewBox="0 0 512 512" xmlns="http://www.w3.org/2000/svg" fill="none">
  <defs>
    <linearGradient id="bg" x1="56" y1="48" x2="456" y2="464" gradientUnits="userSpaceOnUse">
      <stop stop-color="#0A0F1E"/>
      <stop offset="1" stop-color="#1B1250"/>
    </linearGradient>
    <linearGradient id="armor" x1="170" y1="112" x2="340" y2="392" gradientUnits="userSpaceOnUse">
      <stop stop-color="#F5F8FF"/>
      <stop offset="1" stop-color="#9FB1D8"/>
    </linearGradient>
    <linearGradient id="accent" x1="148" y1="170" x2="364" y2="332" gradientUnits="userSpaceOnUse">
      <stop stop-color="#2DF8FF"/>
      <stop offset="1" stop-color="#8D5CFF"/>
    </linearGradient>
    <filter id="glow" x="0" y="0" width="512" height="512" color-interpolation-filters="sRGB">
      <feGaussianBlur stdDeviation="10"/>
    </filter>
  </defs>

  <rect x="28" y="28" width="456" height="456" rx="116" fill="url(#bg)"/>
  <circle cx="256" cy="256" r="168" stroke="#63E8FF" stroke-opacity="0.22" stroke-width="18"/>
  <circle cx="256" cy="256" r="126" fill="#7A6BFF" opacity="0.08" filter="url(#glow)"/>

  <!-- Helmet -->
  <path d="M256 102C186 102 146 156 146 228V286C146 354 194 410 256 410C318 410 366 354 366 286V228C366 156 326 102 256 102Z" fill="url(#armor)"/>

  <!-- Reiwa style neon lines -->
  <path d="M176 192C196 160 224 144 256 144C288 144 316 160 336 192L300 212C288 194 273 184 256 184C239 184 224 194 212 212L176 192Z" fill="url(#accent)"/>
  <path d="M194 320C212 342 232 354 256 354C280 354 300 342 318 320L344 338C318 372 288 388 256 388C224 388 194 372 168 338L194 320Z" fill="url(#accent)"/>

  <!-- Eyes -->
  <path d="M182 238C195 212 219 200 240 205C230 232 230 255 240 282C215 287 194 275 182 238Z" fill="#D6F8FF"/>
  <path d="M330 238C317 212 293 200 272 205C282 232 282 255 272 282C297 287 318 275 330 238Z" fill="#D6F8FF"/>
  <path d="M192 242C201 226 215 219 227 221C220 240 220 248 227 266C212 269 200 262 192 242Z" fill="#2DF8FF"/>
  <path d="M320 242C311 226 297 219 285 221C292 240 292 248 285 266C300 269 312 262 320 242Z" fill="#8D5CFF"/>

  <!-- Core -->
  <path d="M256 248L280 278L256 308L232 278L256 248Z" fill="#5CF7FF" stroke="#E4FDFF" stroke-width="4"/>

  <!-- Mouth slit -->
  <path d="M226 320H286" stroke="#5A6B8E" stroke-width="7" stroke-linecap="round"/>

  <!-- tiny lobster hint -->
  <path d="M238 126L226 106" stroke="#A2D9FF" stroke-width="4" stroke-linecap="round"/>
  <path d="M274 126L286 106" stroke="#A2D9FF" stroke-width="4" stroke-linecap="round"/>

  <text x="256" y="438" text-anchor="middle" fill="#AEE6FF" font-family="Inter, system-ui, sans-serif" font-size="24" font-weight="700">龙虾弟 · 令和形态</text>
</svg>
