<svg width="512" height="512" viewBox="0 0 512 512" fill="none" xmlns="http://www.w3.org/2000/svg">
  <defs>
    <linearGradient id="bg" x1="64" y1="48" x2="448" y2="464" gradientUnits="userSpaceOnUse">
      <stop stop-color="#0B1220"/>
      <stop offset="1" stop-color="#1E2A44"/>
    </linearGradient>
    <linearGradient id="shell" x1="180" y1="110" x2="342" y2="360" gradientUnits="userSpaceOnUse">
      <stop stop-color="#FF7A59"/>
      <stop offset="1" stop-color="#FF4D3A"/>
    </linearGradient>
    <linearGradient id="claw" x1="120" y1="160" x2="392" y2="260" gradientUnits="userSpaceOnUse">
      <stop stop-color="#FF9B6A"/>
      <stop offset="1" stop-color="#FF5A45"/>
    </linearGradient>
    <filter id="glow" x="0" y="0" width="512" height="512" filterUnits="userSpaceOnUse" color-interpolation-filters="sRGB">
      <feGaussianBlur stdDeviation="12"/>
    </filter>
  </defs>

  <rect x="32" y="32" width="448" height="448" rx="120" fill="url(#bg)"/>
  <circle cx="256" cy="256" r="170" fill="#68E1FD" opacity="0.12" filter="url(#glow)"/>

  <!-- Claws -->
  <path d="M112 212C112 170 142 150 174 154C157 172 154 198 166 214C146 230 124 234 112 212Z" fill="url(#claw)"/>
  <path d="M400 212C400 170 370 150 338 154C355 172 358 198 346 214C366 230 388 234 400 212Z" fill="url(#claw)"/>

  <!-- Arms -->
  <path d="M172 216C186 206 208 206 224 216" stroke="#FF8A63" stroke-width="16" stroke-linecap="round"/>
  <path d="M340 216C326 206 304 206 288 216" stroke="#FF8A63" stroke-width="16" stroke-linecap="round"/>

  <!-- Body -->
  <ellipse cx="256" cy="278" rx="98" ry="112" fill="url(#shell)"/>
  <path d="M256 166C212 166 178 204 178 252V290C178 338 212 390 256 390C300 390 334 338 334 290V252C334 204 300 166 256 166Z" stroke="#FFB29D" stroke-opacity="0.45" stroke-width="6"/>

  <!-- Head ridge -->
  <path d="M214 186C226 174 242 168 256 168C270 168 286 174 298 186" stroke="#FFD5C9" stroke-opacity="0.55" stroke-width="6" stroke-linecap="round"/>

  <!-- Eyes -->
  <circle cx="224" cy="246" r="18" fill="#0D172A"/>
  <circle cx="288" cy="246" r="18" fill="#0D172A"/>
  <circle cx="230" cy="240" r="5" fill="#DDF7FF"/>
  <circle cx="294" cy="240" r="5" fill="#DDF7FF"/>

  <!-- Mouth -->
  <path d="M228 300C238 314 274 314 284 300" stroke="#0D172A" stroke-width="8" stroke-linecap="round"/>

  <!-- Accent dots -->
  <circle cx="196" cy="286" r="6" fill="#FFD9CB" opacity="0.8"/>
  <circle cx="316" cy="286" r="6" fill="#FFD9CB" opacity="0.8"/>

  <!-- Signature -->
  <text x="256" y="438" text-anchor="middle" fill="#9AD7FF" font-family="Inter, system-ui, sans-serif" font-size="28" font-weight="700">龙虾弟</text>
</svg>
